<?xml version="1.0" encoding="utf-8"?>
<!-- Generator: Adobe Illustrator 27.2.0, SVG Export Plug-In . SVG Version: 6.00 Build 0)  -->
<svg version="1.1" id="Layer_1" xmlns="http://www.w3.org/2000/svg" xmlns:xlink="http://www.w3.org/1999/xlink" x="0px" y="0px"
	 viewBox="0 0 2467.9 1357" style="enable-background:new 0 0 2467.9 1357;" xml:space="preserve">
<style type="text/css">
	.st0{fill:#E5E5E5;}
	.st1{fill:#F2F1F0;}
</style>
<g id="XMLID_00000086685174956071453570000001595666779035167885_">
	<g>
		<path class="st0" d="M2467.9,652.1c0,28.4-10,52.7-30.1,72.7c-20.1,20.1-44.3,29.3-72.7,27.6c-45.8-1.6-91.7,2.2-136.7,11.3
			c-46,9.2-114.1,24.7-204.4,46.4c-42.8,11.8-83.1,22.2-121,31.1c-2.8,6.8-5.2,13.5-8.1,20.4c-59.4,138-159.3,255-299.8,351.2
			c-140.5,96.2-316.9,144.2-529.2,144.2c-142.1,0-288.4-32.2-438.9-96.6c-22.1-9.4-43.6-19.7-64.7-30.4c-0.2,0.1-0.3,0.2-0.5,0.3
			c-142.1,67.7-293.5,108.2-454,121.7c-28.4,1.7-53.5-7.5-75.2-27.6c-21.7-20-32.6-44.3-32.6-72.7c0-26.7,8.8-49.7,26.3-69
			c17.6-19.2,39.7-29.7,66.5-31.3c95.3-7.2,185.4-24.5,270.4-51.9c-42.6-35.5-82.3-74.3-118.7-116.2
			c-104.7-120.5-162-259.2-172-416.4c-5-97,13-189,53.9-275.9c41-86.9,99.9-157.2,176.8-210.7C380.2,26.7,467.1,0,564.1,0
			c93.6,0,179.3,25.5,257.1,76.5s137.9,120,180.6,206.9c42.6,87,61.5,181.5,56.4,283.4c-8.3,145.5-57.7,275.5-148,390
			c-42.9,54.2-91.7,103.4-145.7,146.6c100.7,35.2,201.1,52.8,301.2,52.8c170.5,0,310.2-35.1,418.9-105.3
			c76.9-49.7,137.1-107.5,181.4-173.1c-47.5,0.9-95-4.1-141.2-15c-105.4-25.1-187.7-82.8-247.1-173.1s-84.9-186.4-76.5-288.4
			c8.3-102,51.8-181.4,130.4-238.3c76.9-55.2,162.2-74.4,255.8-57.7c93.6,16.7,175.6,60.2,245.8,130.4
			c70.2,70.2,112,150.5,125.4,240.8c6.2,45.4,7.2,91.4,2.8,137.1c79.1-20.5,149.9-36.6,211.7-48.1c66.5-12.5,134.3-17.1,201.9-13.8
			c26.8,1.7,48.9,12.1,66.5,31.3l0,0C2459.1,602.4,2467.9,625.4,2467.9,652.1z M1753,664.3c10.8-54.7,12.7-107.3,5.1-157.7
			c-6.7-53.5-27.2-99.5-61.5-138c-34.3-38.4-74.4-61.8-120.4-70.2c-46-8.3-89,1.7-129.2,30.1c-36.8,26.8-56.4,64.4-58.9,112.9
			s12.5,94.9,45.1,139.2s78.2,73.2,136.7,86.5l0,0c45.1,11.7,94.5,13,148,3.8C1728.7,669.1,1740.5,666.8,1753,664.3z M857.6,556.8
			c3.3-70.2-7.1-132.5-31.4-186.9c-24.3-54.3-59.4-96.1-105.4-125.4s-98.2-43.9-156.8-43.9c-60.2,0-113.3,15.5-159.3,46.4
			c-46,31-80.3,73.6-102.8,127.9c-22.6,54.4-32.2,115-28.8,181.8c6.7,118.7,51,223.7,132.9,314.8c47.1,52.2,100.8,98,159.9,136.1
			c70.1-42.9,129.2-94.5,177.4-154.9C812.8,765.8,850.9,667.2,857.6,556.8z"/>
		<path class="st1" d="M1758,506.6c7.6,50.4,5.7,103-5.1,157.7c-12.4,2.5-24.3,4.8-35.1,6.6c-53.5,9.2-102.9,8-148-3.8l0,0
			c-58.5-13.4-104.1-42.2-136.7-86.5s-47.6-90.7-45.1-139.2s22.1-86.1,58.9-112.9c40.1-28.4,83.2-38.4,129.2-30.1
			c46,8.4,86.1,31.8,120.4,70.2C1730.8,407.2,1751.3,453.2,1758,506.6z"/>
		<path class="st1" d="M826.2,369.9c24.2,54.4,34.7,116.6,31.4,186.9c-6.7,110.4-44.7,209-114.1,296
			c-48.2,60.4-107.3,112-177.4,154.9c-59.1-38.1-112.9-83.9-159.9-136.1c-82-91.1-126.3-196.1-132.9-314.8
			c-3.4-66.9,6.2-127.5,28.8-181.8s56.9-97,102.8-127.9c46-30.9,99.1-46.4,159.3-46.4c58.5,0,110.8,14.6,156.8,43.9
			C766.8,273.8,802,315.6,826.2,369.9z"/>
	</g>
</g>
<path class="st1" d="M1666,877.9c-44.3,65.6-104.5,123.4-181.4,173.1c-108.7,70.2-248.3,105.3-418.9,105.3
	c-100.1,0-200.5-17.6-301.2-52.8c53.9-43.2,102.8-92.4,145.7-146.6c90.3-114.5,139.6-244.5,148-390c3.1-62.4-2.8-121.9-17.5-178.7
	c50.9,7,109.3,17.2,159.3,31.6c-4,95.2,21.9,185.2,77.7,270c59.3,90.3,141.7,148,247.1,173.1C1571,873.7,1618.5,878.8,1666,877.9z"
	/>
</svg>
