<svg xmlns="http://www.w3.org/2000/svg" viewBox="0 0 770 770">
  <g id="bg">
    <circle fill="#fff" cx="393.3" cy="379.8" r="308.5" />
    <path
      fill="#4c94b2"
      d="m385,0C172.4,0,0,172.4,0,385s172.4,385,385,385,385-172.4,385-385S597.6,0,385,0Zm0,671.3c-158.1,0-286.3-128.2-286.3-286.3S226.9,98.7,385,98.7s286.3,128.2,286.3,286.3-128.2,286.3-286.3,286.3Z"
    />
  </g>
  <g id="text">
    <path
      fill="#fff"
      d="m89.3,240.9c-2.3-1.3-4.2-2.9-5.7-4.9s-2.6-4.2-3.2-6.6c-.6-2.4-.8-4.8-.5-7.4.3-2.5,1.1-5,2.4-7.3s3-4.3,5-5.9c2-1.6,4.2-2.7,6.6-3.4s4.8-.9,7.3-.7,4.9,1,7.2,2.3c2.3,1.3,4.1,2.9,5.6,4.9s2.6,4.2,3.2,6.6c.6,2.4.8,4.8.5,7.4-.3,2.5-1.1,5-2.4,7.3s-3,4.3-5,5.8c-2,1.6-4.2,2.7-6.5,3.4s-4.8.9-7.3.7c-2.6-.2-5-.9-7.2-2.2Z"
    />
    <path
      fill="#fff"
      d="m165.5,132.4l15.2-13.5,16,18c-.8,3.5-2.1,6.8-3.9,9.7-1.8,2.9-4.1,5.6-6.8,8-3.5,3.1-7.2,5.4-11.1,6.9-3.9,1.5-7.7,2.1-11.5,2s-7.4-1-10.9-2.7-6.6-4.1-9.4-7.2c-2.8-3.2-4.9-6.6-6.2-10.2-1.3-3.6-1.9-7.2-1.6-10.9.2-3.7,1.3-7.3,3.1-10.8s4.4-6.9,7.9-9.9c1.8-1.6,3.6-2.9,5.4-4,1.8-1.1,3.6-2,5.4-2.6,1.8-.7,3.5-1.1,5.2-1.4s3.4-.4,5-.3l1,6.9c.2,1.1,0,2-.6,2.8s-1.5,1.3-2.8,1.5c-1.2.2-2.3.5-3.3.8s-2,.6-2.9,1.1c-.9.4-1.8,1-2.7,1.6s-1.8,1.4-2.8,2.3c-1.9,1.7-3.2,3.5-4.1,5.4-.9,2-1.3,4-1.3,6.1s.5,4.3,1.4,6.4c.9,2.2,2.3,4.3,4.1,6.3,2,2.3,4.1,4,6.3,5.2s4.4,1.9,6.6,2.1c2.2.2,4.4-.1,6.6-.9,2.2-.8,4.2-2,6.1-3.8,1.2-1.1,2.2-2.1,2.9-3.2.8-1.1,1.4-2.2,2-3.5l-5.8-6.5-4.2,3.8c-.6.6-1.3.8-1.9.8s-1.2-.3-1.6-.8l-4.8-5.5Z"
    />
    <path
      fill="#fff"
      d="m255.4,107.4l-8.9,5.2c-1,.6-1.9.8-2.8.7-.9-.1-1.7-.4-2.4-1l-7.9-6.9-18.7,11,2.1,10.3c.1.8,0,1.6-.3,2.5s-1,1.6-1.9,2.2l-8.9,5.2-9.9-60.4,11.7-6.9,47.9,38.1Zm-29.2-8.2l-12.5-10.8c-.8-.7-1.8-1.5-2.9-2.4-1.1-.9-2.2-2-3.4-3.1.5,1.6.9,3.1,1.2,4.5s.5,2.6.7,3.7l3.3,16.1,13.6-8Z"
    />
    <path
      fill="#fff"
      d="m308.8,88.4l-11.3,4c-2.1.7-3.9.5-5.3-.8l-14.5-12.5c-.7-.5-1.3-.8-1.9-1-.6-.1-1.4,0-2.4.3l-3.2,1.1,7,19.9-12.5,4.4-19-53.9,17.5-6.2c3.9-1.4,7.4-2.1,10.4-2.3s5.7.2,7.9,1c2.2.8,4.1,2.1,5.6,3.7,1.5,1.7,2.6,3.6,3.4,5.9.6,1.7,1,3.5,1,5.2.1,1.7-.1,3.4-.6,5-.4,1.6-1.2,3.2-2.1,4.7-1,1.5-2.2,2.9-3.7,4.2,1,.1,1.9.4,2.8.8s1.8.9,2.7,1.6l18.2,14.9Zm-36.6-19.1c1.7-.6,3.1-1.3,4.1-2.2,1-.9,1.8-1.8,2.3-2.8s.7-2.1.7-3.3c0-1.1-.2-2.3-.6-3.5-.8-2.4-2.3-3.9-4.3-4.7s-4.6-.6-7.9.5l-5,1.8,5.6,16,5.1-1.8Z"
    />
    <path
      fill="#fff"
      d="m369.4,79l-10.2,1.5c-1.1.2-2.1,0-2.9-.4s-1.4-1-1.9-1.8l-4.8-9.4-21.4,3.1-1.9,10.3c-.2.8-.6,1.5-1.2,2.2-.7.7-1.5,1.1-2.6,1.3l-10.2,1.5,13.6-59.7,13.4-2,30.1,53.4Zm-24-18.6l-7.5-14.7c-.5-.9-1.1-2-1.7-3.3s-1.3-2.6-2-4.1c-.2,1.6-.4,3.2-.6,4.6-.2,1.4-.5,2.6-.7,3.7l-2.9,16.1,15.4-2.3Z"
    />
    <path
      fill="#fff"
      d="m432.5,25.2l-3.6,57-6.9-.4c-1-.1-1.9-.3-2.5-.7-.7-.4-1.3-1-1.9-1.8l-24.7-35.7v3c0,1-.1,1.8-.1,2.7l-1.9,30.5-11.8-.8,3.6-57,7,.4c.6,0,1.1.1,1.4.2.4.1.7.2,1,.4.3.2.6.4.9.7.3.3.6.7.9,1.1l24.9,36c-.1-1.1-.1-2.2-.1-3.2s0-2,.1-2.9l1.9-30.2,11.8.7Z"
    />
    <path
      fill="#fff"
      d="m497.4,45.1c-.2.7-.4,1.3-.8,1.8-.4.6-.8,1.1-1.4,1.5l-35.7,30.2,26.3,6.9-2.6,9.9-42.6-11.2,1.3-4.9c.2-.6.4-1.1.8-1.6s.8-1,1.2-1.4l35.8-30.3-25-6.6,2.6-9.9,41.3,10.8-1.2,4.8Z"
    />
    <path fill="#fff" d="m508.6,106.1l-12.3-5.1,21.9-52.7,12.3,5.1-21.9,52.7Z" />
    <path
      fill="#fff"
      d="m568,139.2l-8.8-5.3c-1-.6-1.6-1.3-2-2.1-.3-.8-.4-1.7-.3-2.6l2.3-10.3-18.6-11.3-8,6.8c-.6.5-1.4.8-2.3.9-.9.1-1.9-.1-2.8-.7l-8.8-5.4,48.5-37.3,11.6,7-10.8,60.3Zm-6.7-29.5l3.6-16.1c.2-1.1.4-2.3.7-3.6.3-1.4.7-2.9,1.1-4.4-1.2,1.2-2.3,2.2-3.4,3.1-1.1.9-2.1,1.7-2.9,2.4l-12.4,10.4,13.3,8.2Z"
    />
    <path
      fill="#fff"
      d="m666.9,157.8c2.5,3.1,4.3,6.1,5.4,9,1.1,2.8,1.5,5.5,1.4,8s-.8,4.8-2,6.9c-1.2,2.1-2.8,4-4.9,5.7-2.2,1.8-4.5,3.1-7,3.9-2.4.8-4.9,1-7.4.6s-5-1.4-7.6-3.1c-2.6-1.6-5.1-4-7.6-7.1l-4.3-5.4-14.8,12-8.3-10.3,44.4-35.9,12.7,15.7Zm-21.8,17.6c2.2,2.7,4.4,4.1,6.6,4.2,2.2.1,4.5-.7,6.8-2.6,1-.8,1.8-1.7,2.4-2.7.6-1,.9-2,1-3.1s-.1-2.3-.5-3.5-1.2-2.5-2.2-3.8l-4.3-5.4-14.1,11.5,4.3,5.4Z"
    />
    <path
      fill="#fff"
      d="m690.9,210.9l-11.6,6.5,8.7,15.7-8.6,4.8-8.7-15.7-11.9,6.6,11.4,20.5-8.9,5-17.9-32.1,49.9-27.8,17.9,32.1-8.9,5-11.4-20.6Z"
    />
    <path
      fill="#fff"
      d="m682.1,310.8l-3.9-11.3c-.7-2.1-.5-3.9.8-5.3l12.6-14.4c.5-.7.8-1.3,1-1.9.1-.6,0-1.4-.3-2.4l-1.1-3.2-20,6.9-4.3-12.5,54-18.6,6.1,17.6c1.3,3.9,2.1,7.4,2.2,10.4.1,3-.2,5.7-1,7.9-.8,2.2-2.1,4.1-3.8,5.5-1.7,1.5-3.7,2.6-6,3.4-1.8.6-3.5.9-5.2,1s-3.4-.1-5-.6-3.2-1.2-4.7-2.2-2.9-2.2-4.2-3.8c-.1,1-.4,1.9-.8,2.8-.4.9-.9,1.8-1.6,2.7l-14.8,18Zm19.4-36.4c.6,1.7,1.3,3.1,2.2,4.1.8,1,1.8,1.8,2.8,2.3s2.1.7,3.3.7c1.1,0,2.3-.2,3.5-.6,2.4-.8,4-2.2,4.8-4.2s.6-4.6-.5-7.9l-1.7-5-16,5.5,1.6,5.1Z"
    />
    <path fill="#fff" d="m737.4,380.6l-1.2-16-46.5,3.6-1-13.2,46.5-3.6-1.2-16,10.5-.8,3.5,45.2-10.6.8Z" />
    <path
      fill="#fff"
      d="m698.5,421.1c-.2,1.8-.1,3.4.3,4.8.4,1.5,1.1,2.7,2.1,3.8,1,1.1,2.2,2,3.7,2.7s3.3,1.1,5.3,1.4l33.6,3.9-1.5,13.2-33.6-3.9c-3.5-.4-6.6-1.3-9.4-2.8s-5.1-3.4-7-5.7c-1.9-2.3-3.2-5.1-4-8.2s-1-6.6-.6-10.4,1.4-7.1,2.9-10,3.4-5.2,5.8-7.1c2.3-1.9,5-3.2,8.1-4,3-.8,6.3-1,9.8-.6l33.6,3.9-1.5,13.2-33.6-3.9c-2-.2-3.8-.2-5.4.1-1.6.3-3.1.9-4.3,1.7-1.2.8-2.2,1.9-2.9,3.2-.7,1.4-1.2,2.9-1.4,4.7Z"
    />
    <path fill="#fff" d="m713.6,512.6l4.8-15.3-44.5-14,4-12.6,44.5,14,4.8-15.3,10,3.1-13.6,43.3-10-3.2Z" />
    <path fill="#fff" d="m686.5,567.7l7.4-14.3-41.3-21.4,6.1-11.8,41.3,21.5,7.4-14.3,9.3,4.8-20.9,40.3-9.3-4.8Z" />
    <path
      fill="#fff"
      d="m626.8,617c-3.2-2.6-5.8-5.5-7.7-8.9-1.9-3.3-3-6.8-3.5-10.5-.4-3.7-.1-7.4,1-11.2s3.1-7.4,5.8-10.9c2.8-3.5,5.9-6.2,9.3-8.1,3.5-1.9,7-3.1,10.7-3.5s7.3,0,11,1.1,7.1,3,10.3,5.5c3.2,2.6,5.8,5.5,7.6,8.9,1.9,3.3,3,6.8,3.4,10.5s.1,7.4-1.1,11.2c-1.1,3.8-3.1,7.4-5.9,10.9-2.8,3.5-5.9,6.1-9.3,8.1-3.5,1.9-7,3-10.7,3.4s-7.3,0-11-1.1c-3.2-1-6.7-2.9-9.9-5.4Zm8.5-10.6c2.2,1.8,4.4,3.1,6.6,3.9,2.2.8,4.4,1.2,6.5,1.1,2.1-.1,4.1-.6,6-1.7,1.9-1,3.6-2.5,5.2-4.5,1.6-2,2.7-4,3.3-6.1s.7-4.1.4-6.2c-.4-2.1-1.2-4.1-2.5-6.1s-3.1-3.9-5.3-5.6c-2.2-1.8-4.4-3.1-6.7-3.9-2.2-.8-4.4-1.2-6.5-1.1-2.1.1-4.1.7-6,1.7s-3.6,2.6-5.2,4.6c-1.6,2-2.7,4-3.3,6.1s-.7,4.1-.4,6.2c.4,2.1,1.2,4.1,2.5,6.1,1.4,1.8,3.2,3.7,5.4,5.5Z"
    />
    <path fill="#fff" d="m564.5,631.9l10.6-8.1,34.6,45.4-10.6,8.1-34.6-45.4Z" />
    <path fill="#fff" d="m526,668.3l-5.3-9.2,29.8-17.2,28.6,49.4-11.5,6.6-23.3-40.3-18.3,10.7Z" />
    <path
      fill="#fff"
      d="m485.2,733.3c-3.9,1.1-7.3,1.6-10.4,1.5-3-.1-5.7-.7-7.9-1.8-2.3-1.1-4.1-2.6-5.6-4.5s-2.6-4.2-3.3-6.7c-.8-2.7-1.1-5.4-.9-7.9s1-4.9,2.3-7c1.3-2.2,3.2-4.1,5.8-5.8,2.5-1.7,5.7-3.1,9.4-4.2l6.6-1.9-5.3-18.3,12.7-3.7,15.9,54.8-19.3,5.5Zm-7.9-26.9c-3.3,1-5.5,2.4-6.5,4.4s-1.1,4.4-.3,7.3c.4,1.3.9,2.3,1.6,3.3.7.9,1.5,1.6,2.5,2.2s2.1.8,3.4.9c1.3.1,2.7-.1,4.3-.6l6.6-1.9-5.1-17.4-6.5,1.8Z"
    />
    <path
      fill="#fff"
      d="m426.8,734.8l-1.4-13.2-17.8,2-1.1-9.7,17.8-2-1.5-13.5-23.3,2.5-1.1-10.1,36.5-4,6.2,56.8-36.5,4-1.1-10.1,23.3-2.7Z"
    />
    <path
      fill="#fff"
      d="m338.2,687.8l12,.8c2.2.2,3.7,1.1,4.6,2.8l8.3,17.2c.4.7.9,1.3,1.4,1.6.5.4,1.3.6,2.3.6l3.4.2,1.4-21.1,13.2.9-3.9,57-18.5-1.3c-4.1-.3-7.6-.9-10.5-2-2.8-1-5.1-2.4-6.9-4-1.7-1.6-2.9-3.5-3.6-5.6s-1-4.4-.8-6.8c.1-1.8.5-3.6,1.1-5.2.6-1.6,1.4-3.1,2.5-4.4,1.1-1.3,2.3-2.5,3.8-3.5s3.2-1.8,5.1-2.4c-.8-.5-1.6-1.1-2.3-1.8-.7-.7-1.3-1.6-1.9-2.5l-10.7-20.5Zm26,32.1c-1.8-.1-3.3,0-4.6.4-1.3.4-2.4.9-3.2,1.7-.9.8-1.5,1.7-2,2.7-.4,1.1-.7,2.2-.8,3.5-.2,2.5.5,4.5,2,6s4,2.4,7.4,2.6l5.3.4,1.2-16.9-5.3-.4Z"
    />
    <path fill="#fff" d="m314.9,682.3l13.1,2.6-11.1,56-13.1-2.6,11.1-56Z" />
    <path
      fill="#fff"
      d="m235.6,685.1c1.5-3.8,3.6-7.2,6.2-10,2.6-2.8,5.6-4.9,9-6.4s7-2.3,11-2.3c3.9-.1,8,.7,12.1,2.3s7.6,3.8,10.5,6.5,5,5.8,6.5,9.2,2.2,7,2.3,10.8c0,3.8-.7,7.7-2.2,11.5s-3.6,7.2-6.2,10-5.6,4.9-9,6.4-7,2.3-11,2.3c-3.9.1-8-.7-12.1-2.3s-7.6-3.8-10.5-6.5c-2.8-2.7-5-5.8-6.5-9.2s-2.2-7-2.2-10.8c-.2-3.9.6-7.7,2.1-11.5Zm12.6,4.9c-1,2.6-1.6,5.1-1.8,7.5-.1,2.4.1,4.5.8,6.5s1.8,3.7,3.4,5.2c1.5,1.5,3.5,2.7,5.9,3.6,2.4.9,4.7,1.4,6.8,1.3,2.2-.1,4.2-.6,6-1.5,1.8-1,3.5-2.4,5-4.2s2.8-4.1,3.8-6.7c1-2.7,1.6-5.2,1.8-7.5.1-2.4-.1-4.5-.8-6.5-.7-2-1.8-3.7-3.4-5.2s-3.5-2.7-5.9-3.6c-2.4-.9-4.6-1.4-6.8-1.3-2.1,0-4.1.5-6,1.5-1.8,1-3.5,2.4-5,4.2s-2.8,4.1-3.8,6.7Z"
    />
    <path
      fill="#fff"
      d="m175.9,646.8c2.3-3.4,5-6.2,8.1-8.3s6.5-3.5,10-4.2c3.6-.7,7.3-.6,11.1.3,3.8.9,7.6,2.5,11.3,5l18.4,12.4-31.8,47.4-18.4-12.4c-3.7-2.5-6.6-5.3-8.9-8.6-2.2-3.2-3.7-6.6-4.4-10.2-.7-3.5-.7-7.2.1-10.9.7-3.5,2.2-7.1,4.5-10.5Zm11.3,7.6c-1.6,2.3-2.7,4.7-3.4,7s-.9,4.5-.6,6.6c.3,2.1,1,4,2.1,5.8,1.2,1.8,2.8,3.4,4.9,4.8l7.3,4.9,20.5-30.5-7.3-4.9c-2.1-1.4-4.2-2.3-6.3-2.7s-4.2-.3-6.2.2-4,1.6-5.8,3c-1.9,1.5-3.6,3.4-5.2,5.8Z"
    />
    <path
      fill="#fff"
      d="m122.8,593.7c3-2.8,6.3-5,9.8-6.4,3.6-1.4,7.2-2.1,10.9-2s7.3.9,10.9,2.5c3.6,1.6,6.9,4,10,7.3,3.1,3.2,5.3,6.7,6.7,10.3,1.4,3.7,2.1,7.4,2,11.1-.1,3.7-1,7.3-2.6,10.8s-3.9,6.6-6.9,9.5c-3,2.8-6.3,5-9.8,6.4-3.6,1.4-7.2,2.1-10.9,2s-7.3-.9-10.9-2.6c-3.6-1.6-6.9-4-10-7.3-3.1-3.2-5.3-6.7-6.7-10.3-1.4-3.7-2.1-7.4-2-11,.1-3.7,1-7.3,2.6-10.7,1.6-3.6,3.9-6.7,6.9-9.6Zm9.3,9.9c-2,1.9-3.6,4-4.8,6-1.1,2.1-1.8,4.2-2,6.2-.2,2.1.1,4.1.9,6.1s2,3.9,3.8,5.8c1.8,1.9,3.6,3.2,5.6,4.1,2,.9,4,1.3,6.1,1.2s4.2-.6,6.3-1.7c2.1-1,4.2-2.5,6.3-4.5s3.7-4,4.8-6.1,1.8-4.2,2-6.2c.2-2.1-.1-4.1-.9-6.1-.8-2-2.1-4-3.8-5.8s-3.6-3.2-5.6-4.1c-2-.9-4-1.3-6.1-1.2s-4.2.6-6.3,1.7c-2.1,1.1-4.2,2.6-6.3,4.6Z"
    />
    <path
      fill="#fff"
      d="m73.8,509c3.7-1.8,7.4-2.9,11.2-3.2,3.8-.3,7.4.2,10.8,1.4,3.4,1.2,6.6,3.1,9.5,5.7s5.3,5.9,7.3,9.9l9.9,19.9-51.1,25.4-9.9-19.9c-2-4-3.1-7.9-3.5-11.8-.3-3.9.1-7.6,1.2-11,1.1-3.4,2.9-6.6,5.4-9.4,2.5-2.9,5.6-5.2,9.2-7Zm6.1,12.1c-2.5,1.3-4.6,2.7-6.4,4.4-1.7,1.7-3,3.5-3.8,5.4s-1.1,4-1,6.1c.1,2.2.8,4.4,1.9,6.6l3.9,7.9,32.9-16.4-3.9-7.9c-1.1-2.3-2.5-4.1-4.2-5.5-1.6-1.4-3.5-2.4-5.5-2.9s-4.2-.6-6.6-.2c-2.3.4-4.8,1.3-7.3,2.5Z"
    />
    <path
      fill="#fff"
      d="m35.9,495.3c1.7-2,3.6-3.7,5.7-4.9,2.1-1.2,4.3-2,6.7-2.3,2.3-.3,4.7-.2,7.1.5,2.4.6,4.8,1.7,7.1,3.3l-1,4.4c-.1.4-.2.7-.4.9-.2.2-.5.4-.7.4-.3.1-.5.1-.8.1s-.5-.1-.8-.2c-.4-.2-.9-.3-1.5-.5s-1.3-.3-2.1-.3-1.6,0-2.5.1-1.8.3-2.7.7c-.9.4-1.8.8-2.7,1.5-.9.6-1.8,1.4-2.6,2.5-.7.8-1.4,1.2-2.1,1.2-.7-.1-1.3-.4-1.8-1.1l-4.9-6.3Z"
    />
    <path
      fill="#fff"
      d="m73.9,438.7c-.3-1.8-.9-3.3-1.7-4.5-.8-1.3-1.8-2.3-3.1-3.1-1.2-.8-2.7-1.3-4.3-1.5-1.6-.2-3.5-.2-5.4.2l-33.4,5.7-2.3-13.1,33.3-5.7c3.5-.6,6.7-.6,9.8,0,3.1.6,5.8,1.8,8.3,3.5,2.4,1.7,4.5,4,6.2,6.8s2.8,6,3.5,9.8c.6,3.8.6,7.2,0,10.4-.6,3.2-1.8,6-3.6,8.4-1.7,2.4-3.9,4.5-6.6,6.1s-5.8,2.7-9.2,3.3l-33.3,5.7-2.3-13.1,33.3-5.7c2-.3,3.7-.9,5.2-1.7,1.5-.8,2.7-1.7,3.6-2.9.9-1.1,1.6-2.5,1.9-3.9.3-1.4.4-3,.1-4.7Z"
    />
    <path
      fill="#fff"
      d="m34.5,364.7c.6.4,1.1.8,1.4,1.3.3.4.5,1,.4,1.7,0,.6-.2,1.2-.6,1.9-.4.7-.8,1.5-1.3,2.3-.5.9-.9,1.9-1.3,3-.4,1.1-.6,2.4-.6,3.8,0,2.5.5,4.3,1.5,5.6,1,1.2,2.5,1.9,4.3,1.9,1.2,0,2.1-.3,2.9-1.1.8-.7,1.4-1.7,2-2.9.6-1.2,1.1-2.5,1.6-4.1.5-1.5,1-3.1,1.6-4.7s1.3-3.1,2.1-4.7c.8-1.5,1.8-2.9,3-4,1.2-1.2,2.6-2.1,4.3-2.8,1.7-.7,3.7-1,6.1-1,2.6,0,5.1.5,7.4,1.5,2.3.9,4.3,2.3,6,4.1,1.7,1.8,3,3.9,3.9,6.5s1.4,5.5,1.3,8.7c0,1.8-.2,3.6-.6,5.4s-.9,3.6-1.6,5.3c-.7,1.7-1.5,3.3-2.4,4.8s-2,2.8-3.1,3.9l-6.1-4c-.4-.3-.8-.7-1.1-1.3-.3-.5-.4-1.1-.4-1.7,0-.8.3-1.6.8-2.4s1.1-1.7,1.7-2.7,1.2-2.1,1.7-3.4.8-2.8.8-4.6c0-2.4-.5-4.3-1.5-5.6-1-1.3-2.7-2-5-2.1-1.3,0-2.4.3-3.3,1-.8.7-1.6,1.7-2.1,2.8-.6,1.2-1.1,2.5-1.5,4s-.9,3.1-1.5,4.6c-.5,1.6-1.2,3.1-2,4.6s-1.8,2.8-3,4-2.8,2.1-4.6,2.8c-1.8.7-4.1,1-6.7,1-2.1,0-4.2-.5-6.2-1.4s-3.8-2.2-5.4-3.9c-1.6-1.7-2.8-3.8-3.7-6.2-.9-2.4-1.3-5.2-1.3-8.4,0-1.7.2-3.5.5-5.1.3-1.7.7-3.2,1.3-4.7.6-1.5,1.2-2.9,2-4.1.8-1.3,1.6-2.4,2.6-3.4l5.7,3.8Z"
    />
    <path
      fill="#fff"
      d="m64.1,287.7c4.1.8,7.7,2.2,10.9,4.3,3.2,2.1,5.9,4.6,7.9,7.7,2.1,3,3.5,6.5,4.2,10.4.8,3.9.7,8-.2,12.3-.9,4.4-2.4,8.2-4.5,11.5-2.2,3.3-4.8,6-7.9,8s-6.5,3.4-10.3,4.1c-3.8.7-7.7.7-11.7-.1-4-.8-7.7-2.2-10.9-4.3-3.2-2.1-5.8-4.7-7.9-7.7-2.1-3.1-3.5-6.5-4.2-10.4-.8-3.9-.7-8,.2-12.4.9-4.4,2.4-8.2,4.6-11.5,2.2-3.3,4.8-5.9,7.9-8,3.1-2,6.5-3.4,10.2-4.1,3.8-.6,7.6-.6,11.7.2Zm-2.7,13.3c-2.8-.5-5.3-.7-7.7-.4-2.4.3-4.4.9-6.2,2-1.8,1-3.3,2.5-4.5,4.2-1.2,1.8-2.1,3.9-2.5,6.4-.5,2.5-.5,4.8-.1,7,.4,2.1,1.3,4,2.6,5.7,1.3,1.6,2.9,3.1,5,4.2,2.1,1.2,4.5,2,7.3,2.6s5.4.7,7.7.4c2.4-.3,4.4-.9,6.2-2,1.8-1,3.3-2.5,4.5-4.3s2-4,2.5-6.5.5-4.8.1-6.9-1.3-4-2.5-5.6c-1.3-1.6-2.9-3.1-5-4.2-2.1-1.2-4.6-2-7.4-2.6Z"
    />
  </g>
  <g id="helmet">
    <path
      fill="#fca39b"
      d="m529.7,320.9c-11.3,2.7-22.4,5.7-33.5,8.1-12.8,2.8-24.4,7.6-34.4,16.3-23.3,20.3-23.8,56.7-.7,77.3,13.7,12.2,30.2,18.7,47.8,22.6,8.5,1.9,17.3,2.9,26,4,2.9.4,3.9,1.4,3.9,4.3.1,17-3.4,33.4-7.8,49.6-1.3,4.8-2.8,9.5-4.4,14.6-7.5-1-14.8-1.7-22.1-2.9-34-5.3-68-10.2-101.9-16-36.1-6.2-72-13.8-106.9-25.2-11.6-3.8-22.7-9-33.9-13.7-1.7-.7-3.5-2.4-4.2-4.1-8.9-22.6-19.6-44.5-25.6-68.2-21.2-83.3,30.9-156.2,106-174.8,32.7-8.1,64.7-5,96.3,5.6,23.8,8,45.7,19.4,63.6,37.4,17.1,17.1,27.9,37.5,31.5,61.5.3,1.1.2,2.3.3,3.6Zm-109.9,29.7c0-8.8-7-15.8-15.8-15.9-8.6-.1-15.8,7-15.9,15.8-.1,8.9,7.1,16.1,16,16.1,8.7-.1,15.7-7.2,15.7-16Zm28.2,87c.2-9-6.6-16.3-15.5-16.5-8.6-.3-15.9,6.9-16.1,15.5-.2,8.8,6.6,16,15.3,16.3,8.6.3,16.1-6.7,16.3-15.3Zm-91-215.6c-.5,0-1,0-1.5.1-21.6,3.2-41.4,11.3-59.5,23.5-2.3,1.6-3.4,3.7-1.6,6.1,1.9,2.7,4.3,2.1,6.7.5,17.3-11.5,36.1-19.2,56.8-21.9,2.6-.3,4.4-1.7,4.2-4.5-.3-3-2.3-4-5.1-3.8Zm23.7,6.4v.2c3.4,0,6.9-.1,10.3,0,2.9.1,5.2-.6,5.6-3.8.3-3-1.6-4.5-4.4-4.5-6.9,0-13.7,0-20.6.3-2.4.1-4.1,1.8-3.9,4.3.2,2.7,2,4,4.7,3.9,2.7,0,5.5-.2,8.3-.4Z"
    />
    <path
      d="m419.8,350.6c0,8.8-6.9,15.9-15.7,15.9-8.8.1-16-7.1-16-16.1.1-8.7,7.2-15.8,15.9-15.8,8.7.2,15.7,7.2,15.8,16Zm-11.1.9v-1.7c-1.6-1.1-3-2.8-4.7-3.1-2.5-.5-4,1.4-4.1,3.9s1.6,4.3,4,4c1.7-.3,3.2-2,4.8-3.1Z"
    />
    <path
      d="m448,437.6c-.2,8.6-7.7,15.6-16.3,15.3-8.7-.3-15.5-7.5-15.3-16.3.2-8.7,7.5-15.8,16.1-15.5,8.9.2,15.7,7.5,15.5,16.5Zm-16.8,4.1h1.7c1.1-1.5,2.9-3,3.2-4.6.4-2.4-1.4-4-3.9-4s-4.3,1.5-4,3.9c.3,1.6,2,3.1,3,4.7Z"
    />
    <path
      d="m357,222c2.8-.2,4.9.9,5.1,3.8.2,2.8-1.6,4.1-4.2,4.5-20.7,2.8-39.5,10.4-56.8,21.9-2.4,1.6-4.8,2.2-6.7-.5-1.8-2.5-.7-4.6,1.6-6.1,18.1-12.2,37.8-20.3,59.5-23.5.4-.1,1-.1,1.5-.1Z"
    />
    <path
      d="m380.7,228.4c-2.8.2-5.6.4-8.4.5-2.7.1-4.5-1.2-4.7-3.9-.2-2.6,1.5-4.2,3.9-4.3,6.9-.3,13.7-.3,20.6-.3,2.8,0,4.7,1.6,4.4,4.5-.3,3.2-2.6,3.9-5.6,3.8-3.4-.2-6.9,0-10.3,0q.1-.2.1-.3Z"
    />
    <path
      d="m538.2,318.2c1.8.8,3.9,1.2,4.8,2.4,1.1,1.4,2.1,4,1.5,5.4-.9,1.9-3,3.9-5,4.5-12.5,3.3-25.2,6.3-37.8,9.3-9.2,2.2-18.2,4.6-26.3,9.7-22.5,14.1-29.1,48.7-2,68.1,13.6,9.7,28.9,14.9,45.1,17.6,8.5,1.5,17.2,2.1,25.8,2.9,2.9.3,5.3,1,6.4,3.9,1.1,2.9-.1,5.1-2.4,7-.7.6-1.2,1.9-1.2,2.9.5,21.8-4.6,42.7-11,63.3-.7,2.2-1.2,4,.5,6.3,1,1.3.8,4.7-.2,5.8-1.5,1.6-4.4,2.7-6.5,2.5-9.6-.9-19.2-2.2-28.8-3.7-33.7-5.2-67.5-10.2-101.1-16-37-6.4-73.7-14.3-109.5-25.9-13-4.2-25.8-8.9-37.5-16-1.9-1.2-3.8-2.6-5.5-4.1-3.3-2.9-3.4-5.3-1.2-9.1.6-1,.6-2.8.1-4-5.9-15.2-12.5-30.1-17.8-45.5-15.9-46.8-13.4-92.3,13.7-134.5,25.1-39.2,61.7-62.3,107.6-68.9,54.7-8,103.9,6.7,146.7,41.3,22.9,18.5,36.6,43.1,41.1,72.5.2.9.4,1.8.5,2.3Zm-8.5,2.7c-.1-1.4-.1-2.5-.2-3.6-3.7-24-14.4-44.4-31.5-61.5-18-18-39.8-29.4-63.6-37.4-31.6-10.6-63.6-13.7-96.3-5.6-75.1,18.6-127.2,91.6-106,174.8,6,23.6,16.7,45.6,25.6,68.2.7,1.7,2.5,3.3,4.2,4.1,11.2,4.8,22.3,9.9,33.9,13.7,34.9,11.5,70.8,19,106.9,25.2,33.9,5.9,67.9,10.8,101.9,16,7.3,1.1,14.6,1.9,22.1,2.9,1.5-5.1,3.1-9.8,4.4-14.6,4.4-16.3,7.9-32.7,7.8-49.6,0-2.9-1-3.9-3.9-4.3-8.7-1.1-17.5-2.1-26-4-17.6-3.9-34.1-10.4-47.8-22.6-23.1-20.6-22.7-57,.7-77.3,10-8.7,21.6-13.6,34.4-16.3,11.1-2.4,22.1-5.3,33.4-8.1Z"
    />
    <path
      fill="#fff"
      d="m431.2,441.7c-1.1-1.6-2.8-3-3-4.7-.3-2.4,1.4-4,4-3.9,2.6,0,4.3,1.7,3.9,4-.3,1.7-2.1,3.1-3.2,4.6h-1.7Z"
    />
    <path
      fill="#fff"
      d="m408.7,351.5c-1.6,1.1-3.1,2.8-4.8,3-2.4.3-4.1-1.5-4-4,.1-2.4,1.6-4.3,4.1-3.9,1.7.3,3.2,2,4.7,3.1,0,.7,0,1.3,0,1.8Z"
    />
  </g>
</svg>
