<svg xmlns="http://www.w3.org/2000/svg" width="318.055" height="226.692" viewBox="0 0 318.055 226.692">
  <path id="reedy-logo-2" d="M283.933,67.812a11.026,11.026,0,0,0-7.729-3.646,100.894,100.894,0,0,0-23.478,1.6c-7.177,1.329-15.418,3.211-24.614,5.589a68.56,68.56,0,0,0-.323-15.943q-2.337-15.75-14.583-28a52.812,52.812,0,0,0-28.584-15.166,37.733,37.733,0,0,0-29.749,6.709q-13.714,9.918-15.166,27.708t8.9,33.54a45.936,45.936,0,0,0,28.728,20.125,65.9,65.9,0,0,0,16.424,1.748,72.229,72.229,0,0,1-21.091,20.126q-18.961,12.25-48.708,12.25a105.938,105.938,0,0,1-35.022-6.141,106.369,106.369,0,0,0,16.94-17.046,78.938,78.938,0,0,0,17.207-45.353,66.243,66.243,0,0,0-6.562-32.958A59.488,59.488,0,0,0,95.52,8.9,53.4,53.4,0,0,0,65.624,0,51.855,51.855,0,0,0,35.292,9.334a60.916,60.916,0,0,0-20.562,24.5A66.162,66.162,0,0,0,8.458,65.917a79.808,79.808,0,0,0,19.979,48.416,120.429,120.429,0,0,0,13.8,13.511,134.707,134.707,0,0,1-31.444,6.031,11.023,11.023,0,0,0-7.729,3.645A11.5,11.5,0,0,0,0,145.541,11.1,11.1,0,0,0,3.792,154a11.469,11.469,0,0,0,8.75,3.208,150.865,150.865,0,0,0,52.791-14.146l.061-.031c2.456,1.24,4.951,2.432,7.521,3.531q26.251,11.224,51.041,11.228,37.038,0,61.54-16.77t34.855-40.833c.342-.8.625-1.577.945-2.368q6.612-1.55,14.075-3.611,15.75-3.788,23.771-5.4a68.356,68.356,0,0,1,15.9-1.313,10.576,10.576,0,0,0,8.458-3.208,12,12,0,0,0,.438-16.479M31.791,64.75A48.179,48.179,0,0,1,35.146,43.6,31.94,31.94,0,0,1,65.624,23.333a33.257,33.257,0,0,1,18.229,5.105A32.458,32.458,0,0,1,96.1,43.021,47.25,47.25,0,0,1,99.749,64.75,59.756,59.756,0,0,1,86.478,99.167a79.162,79.162,0,0,1-20.631,18.011,92.467,92.467,0,0,1-18.6-15.824,58.241,58.241,0,0,1-15.458-36.6m150.79,12.833a26.191,26.191,0,0,1-15.9-10.062Q161,59.8,161.436,51.334a16.408,16.408,0,0,1,6.854-13.125,19.171,19.171,0,0,1,15.02-3.5,24.321,24.321,0,0,1,14,8.167,28.955,28.955,0,0,1,7.146,16.043,53.38,53.38,0,0,1-.591,18.334c-1.445.29-2.821.554-4.076.769a40.589,40.589,0,0,1-17.209-.438" transform="matrix(0.966, -0.259, 0.259, 0.966, 0, 74.279)" fill="#65D872"/>
</svg>
