<svg viewBox="0 0 200 126" xmlns="http://www.w3.org/2000/svg">
  <path
    fill="#66d871"
    d="m198.65,96.48s.02,0,.03,0c-.04-.16-.07-.32-.11-.48-1.26-7.78-2.09-15.83-5.46-22.96-2.9-6.13-3.51-6.29,1.61-13.6,3.99-5.7,1.74-10.12,4.21-14.41,4.83-8.38-8.19-15.93-13.02-7.56-.3.53-.62,1.04-.94,1.56.52-3.15-1.94-6.55-4.69-7.7-1.76-.73-3.44-.76-4.98-.27,2.17-7.32-9.19-13.04-13.93-5.56-1.74,2.75-3.3,5.64-4.77,8.57-1.83-.8-4.05-.75-6.36.71-.64.41-1.26.85-1.86,1.3-3-3.1-8.4-3.66-11.65,1.25-2.17,3.29-4.4,6.53-6.69,9.72,2.53-6.27,5.06-12.53,7.17-18.94,2.28-6.94-7.68-12.95-12.6-7.29-4.19,4.82-7.46,10.42-10.85,15.8-.54.85-1.07,1.7-1.61,2.56-1.58.05-3.14.68-4.44,2.05-2.84-2.51-7.39-3.17-10.34.11-.21.24-.43.48-.64.72-1.8-.48-3.78-.4-5.56.45.03-3.2-1.83-6.29-4.62-7.41,1.33-6.45-7.28-11.03-12.55-6.62-.41-.25-.84-.47-1.29-.66.07-.2.14-.39.22-.59,3.11-8.1-9.52-12.86-13.78-5.77-1.74,2.9-3.29,5.88-4.7,8.93-1.08-1-2.45-1.74-3.91-2.1,3.73-5.48,7.29-11.07,10.7-16.73,4.25-7.08-6.45-15.92-11.84-9.08-.4.5-.77,1.02-1.16,1.53,0,0-.01,0-.02-.01-.04.06-.08.13-.12.19-5.43,7.08-10.29,14.53-14.65,22.26-9.23,12.79-19.5,24.79-31.14,35.59-7.11,6.59,3.57,17.17,10.66,10.59.32-.3.63-.6.95-.9-1.9,5.83-3.62,11.71-5.2,17.62-2.24,8.41,9.12,12.76,13.78,5.77,3.68-5.53,7.25-11.13,10.74-16.78-1.19,7.84-2.73,15.58-5.4,23.04-2.39,6.67,5.49,11.05,10.78,8.53,1.7,4.69,9.22,6.66,13.04,2.49-1.07,3,.92,6.77,3.52,8.28,3.11,1.81,6.48.93,9.14-1.17,3.69-2.92,6.39-7.35,8.87-11.33.39.51.86.98,1.43,1.42.64.49,1.39.88,2.19,1.14-.29,7.13,9.34,12.01,13.75,4.5,2.74-4.66,5.13-9.56,7.37-14.52-.17.83-.34,1.66-.52,2.44-.6,2.59-1.2,5.17-1.83,7.75-.27,1.11-.58,2.21-.85,3.33-.1.41-.33.92-.48,1.22.11-.19.28-.5.54-.96-4.07,7.12,6.22,15.85,11.84,9.08.41-.49.79-1.01,1.18-1.52,0,0,0,0,0,0,0,0,0,0,0-.01,3.64-4.73,6.48-10.02,9.12-15.39.33,1.06.66,2.11.99,3.17,1.68,5.38,8.45,7.33,12.6,3.3,3.52-3.41,7.04-6.83,10.56-10.24,1.79,4.12,3.57,8.23,5.36,12.35,2.61,6.02,12.38,4.07,13.78-1.79,1-4.19,2.06-8.36,3.15-12.53,1.58,3.91,3.16,7.82,4.73,11.73,2.97,7.35,14.77,7.06,14.73-1.99-.02-5.57-.05-11.14-.07-16.71.49,2.16.96,4.33,1.43,6.5,1.76,8.07,15.83,6.45,14.73-1.99-.09-.66-.2-1.32-.3-1.98Z"
  />
</svg>
