<svg id="Group_15" data-name="Group 15" xmlns="http://www.w3.org/2000/svg" xmlns:xlink="http://www.w3.org/1999/xlink" width="51.839" height="64" viewBox="0 0 51.839 64">
  <defs>
    <clipPath id="clip-path">
      <rect id="Rectangle_5" data-name="Rectangle 5" width="51.839" height="64" fill="none"/>
    </clipPath>
  </defs>
  <g id="Group_14" data-name="Group 14" transform="translate(0 0)" clip-path="url(#clip-path)">
    <path id="Path_1737" data-name="Path 1737" d="M25.92,20.793a10.4,10.4,0,1,0-10.4-10.4,10.408,10.408,0,0,0,10.4,10.4m0-17a6.6,6.6,0,1,1-6.606,6.6,6.61,6.61,0,0,1,6.606-6.6m-.132,45.833c4.605,0,7.465-2.387,7.465-6.227a7.465,7.465,0,0,0-14.929,0c0,3.84,2.862,6.227,7.465,6.227m0-9.9A3.675,3.675,0,0,1,29.459,43.4c0,.6,0,2.434-3.671,2.434S22.116,44,22.116,43.4a3.676,3.676,0,0,1,3.671-3.671m15.951-25.9a1.9,1.9,0,1,0-2.317,3,22.126,22.126,0,0,1-.047,35.094,1.9,1.9,0,0,0-.745,1.507v3.713A2.924,2.924,0,0,1,32.8,57.6a1.9,1.9,0,0,0-2.27-1.588,22.327,22.327,0,0,1-9.234,0,1.9,1.9,0,0,0-2.27,1.585A2.923,2.923,0,0,1,13.2,57.15V53.432a1.9,1.9,0,0,0-.742-1.507,22.13,22.13,0,0,1-.044-35.091,1.9,1.9,0,0,0-2.317-3,25.921,25.921,0,0,0-.69,40.511V57.15A6.7,6.7,0,0,0,22.23,60.02a26.168,26.168,0,0,0,3.689.265,26.541,26.541,0,0,0,3.684-.262,6.7,6.7,0,0,0,12.82-2.872v-2.8a25.915,25.915,0,0,0-.685-40.514Zm-20.427,14.8A1.869,1.869,0,1,0,19.441,30.5a1.871,1.871,0,0,0,1.871-1.871m13.583,0A1.869,1.869,0,1,0,33.024,30.5a1.871,1.871,0,0,0,1.871-1.871" transform="translate(0 0)" fill="#ffa49c"/>
  </g>
</svg>
