<svg xmlns="http://www.w3.org/2000/svg" xmlns:xlink="http://www.w3.org/1999/xlink" width="120" height="119.781" viewBox="0 0 120 119.781">
  <defs>
    <clipPath id="clip-path">
      <rect id="Rectangle_8" data-name="Rectangle 8" width="120" height="119.781" fill="none"/>
    </clipPath>
  </defs>
  <g id="Group_20" data-name="Group 20" clip-path="url(#clip-path)">
    <path id="Path_1741" data-name="Path 1741" d="M27.477,53.377a21.24,21.24,0,0,1,.223-3.442,2.925,2.925,0,0,0-1.064-3c-4.987-4.9-9.915-9.867-14.861-14.816-1.439-1.439-1.407-2.483-.038-3.94,3.492-3.717,7.394-6.816,12.313-8.446A27.947,27.947,0,0,1,34.713,18.3a2.146,2.146,0,0,0,1.422-.671c7-7.121,14.943-12.743,24.674-15.522a51.613,51.613,0,0,1,33.343,1.4,3.269,3.269,0,0,1,1.677,1.691A51.744,51.744,0,0,1,81.422,62.975a1.93,1.93,0,0,0-.8,1.744,26.7,26.7,0,0,1-8.3,21.195c-.548.539-1.076,1.1-1.633,1.627a2.251,2.251,0,0,1-3.527-.047Q59.411,79.755,51.679,72a2.3,2.3,0,0,0-2.084-.812c-2.137.2-4.3.185-6.444.246a3.762,3.762,0,0,1-2.938-1.284C36.56,66.413,32.872,62.7,29.122,59.067a4.294,4.294,0,0,1-1.592-3.615c.056-.686.009-1.381.009-2.076ZM95.57,25.683A52.983,52.983,0,0,0,92.85,7.672,2.085,2.085,0,0,0,91.4,6.23,47.2,47.2,0,0,0,70.5,3.884C55.511,5.676,43.59,12.6,35.217,25.325a45.551,45.551,0,0,0-6.849,16.6,1.941,1.941,0,0,0,.337,1.513Q42.241,56.88,55.868,70.245a1.671,1.671,0,0,0,1.278.378,43.947,43.947,0,0,0,19.059-8.5c12.7-9.68,18.875-22.681,19.364-36.441M59.726,74.111c3.146,3.16,6.265,6.288,9.4,9.434A22.893,22.893,0,0,0,76.789,66.22c-5.268,4.128-11.22,5.936-17.063,7.892m-27-51.981a24.042,24.042,0,0,0-17.259,7.8c3.114,3.137,6.212,6.259,9.358,9.425,1.868-5.963,3.832-11.922,7.9-17.228M46.715,67.589C41.687,62.564,36.571,57.449,31.526,52.4a10.284,10.284,0,0,1-.012,1.366,3.712,3.712,0,0,0,1.328,3.33c2.809,2.668,5.635,5.338,8.194,8.237a6.015,6.015,0,0,0,5.849,2.213c.038-.006.076-.018-.17.038" transform="translate(20.674 0.001)" fill="#16181d"/>
    <path id="Path_1742" data-name="Path 1742" d="M0,59.217A57.792,57.792,0,0,1,57.34,1.422c1.554-.021,2.448.9,2.26,2.225-.147,1.038-.953,1.645-2.272,1.653a51.639,51.639,0,0,0-14.65,2.175A52.844,52.844,0,0,0,11.5,31.7a53.213,53.213,0,0,0,4.524,61.523,52.312,52.312,0,0,0,32.463,19.064A53.845,53.845,0,0,0,111.7,60.1c0-.155,0-.308,0-.46.038-1.4.753-2.234,1.929-2.248,1.24-.018,2.032.821,1.941,2.316a81.5,81.5,0,0,1-.748,8.718,56.759,56.759,0,0,1-24.3,38.323,54.863,54.863,0,0,1-38.183,9.95c-21.082-2.26-36.512-13.107-46.334-31.821A54.136,54.136,0,0,1,0,59.217" transform="translate(0 2.748)" fill="#16181d"/>
    <path id="Path_1743" data-name="Path 1743" d="M29.29,26.888a10.132,10.132,0,0,1-1.041,1.648Q20.492,36.341,12.69,44.105a2.167,2.167,0,0,1-3.09.249c-.888-.856-.789-1.911.311-3q7.762-7.717,15.53-15.434c.683-.68,1.489-1.137,2.357-.654a7.131,7.131,0,0,1,1.492,1.627" transform="translate(17.39 48.406)" fill="#16181d"/>
    <path id="Path_1744" data-name="Path 1744" d="M14.8,44.866c-.648-.589-1.384-.982-1.645-1.58a3.437,3.437,0,0,1,.2-1.905c.064-.261.393-.46.61-.674L29.024,25.759a5.709,5.709,0,0,1,.774-.686,1.733,1.733,0,0,1,2.4.252,1.777,1.777,0,0,1,.211,2.413,4.645,4.645,0,0,1-.61.689q-7.511,7.568-15.04,15.124A13.331,13.331,0,0,1,14.8,44.866" transform="translate(25.252 47.718)" fill="#16181d"/>
    <path id="Path_1745" data-name="Path 1745" d="M11.263,41.144a6.96,6.96,0,0,1-1.692-1.419,1.806,1.806,0,0,1,.554-2.275q4.059-4,8.1-8.024L26,21.723a1.837,1.837,0,0,1,2.4-.375,1.729,1.729,0,0,1,.877,2.061,2.8,2.8,0,0,1-.715,1.146Q20.8,32.347,13,40.1a9.387,9.387,0,0,1-1.736,1.041" transform="translate(18.069 40.67)" fill="#16181d"/>
    <path id="Path_1746" data-name="Path 1746" d="M83.95,23.333c-.49,13.76-6.667,26.762-19.364,36.441a43.981,43.981,0,0,1-19.059,8.5,1.683,1.683,0,0,1-1.278-.378Q30.628,54.527,17.085,41.084a1.941,1.941,0,0,1-.337-1.513,45.551,45.551,0,0,1,6.849-16.6C31.97,10.253,43.89,3.326,58.88,1.532a47.2,47.2,0,0,1,20.9,2.348,2.087,2.087,0,0,1,1.451,1.439A53.014,53.014,0,0,1,83.95,23.333M64.656,29.316a8.84,8.84,0,1,0-8.775-8.836,8.911,8.911,0,0,0,8.775,8.836" transform="translate(32.295 2.351)" fill="#00d96b"/>
    <path id="Path_1747" data-name="Path 1747" d="M27.424,30.479c5.843-1.955,11.794-3.761,17.063-7.889a22.9,22.9,0,0,1-7.661,17.325c-3.137-3.145-6.256-6.276-9.4-9.436" transform="translate(52.977 43.634)" fill="#00d96b"/>
    <path id="Path_1748" data-name="Path 1748" d="M29.587,7.549c-4.069,5.306-6.034,11.266-7.9,17.228-3.146-3.166-6.245-6.291-9.358-9.425a24.042,24.042,0,0,1,17.259-7.8" transform="translate(23.815 14.582)" fill="#00d96b"/>
    <path id="Path_1749" data-name="Path 1749" d="M33.021,33.061c.246-.056.208-.044.17-.038a6.015,6.015,0,0,1-5.849-2.213c-2.559-2.9-5.386-5.57-8.194-8.238a3.712,3.712,0,0,1-1.328-3.33,10.285,10.285,0,0,0,.012-1.366c5.046,5.045,10.161,10.161,15.189,15.185" transform="translate(34.369 34.529)" fill="#00d96b"/>
    <path id="Path_1750" data-name="Path 1750" d="M38.851,22.451a8.84,8.84,0,1,1,8.977-8.783,8.844,8.844,0,0,1-8.977,8.783M38.733,8.673a4.937,4.937,0,0,0-4.946,4.986,4.862,4.862,0,0,0,4.934,4.978,4.988,4.988,0,0,0,4.963-5,4.884,4.884,0,0,0-4.952-4.963" transform="translate(58.1 9.217)" fill="#16181d"/>
    <path id="Path_1751" data-name="Path 1751" d="M36.288,6.1a4.884,4.884,0,0,1,4.952,4.963,4.988,4.988,0,0,1-4.963,5,4.862,4.862,0,0,1-4.934-4.978A4.937,4.937,0,0,1,36.288,6.1" transform="translate(60.545 11.787)" fill="#fff"/>
  </g>
</svg>
