<svg id="Group_33" data-name="Group 33" xmlns="http://www.w3.org/2000/svg" xmlns:xlink="http://www.w3.org/1999/xlink" width="65.048" height="63.413" viewBox="0 0 65.048 63.413">
  <defs>
    <clipPath id="clip-path">
      <rect id="Rectangle_11" data-name="Rectangle 11" width="65.048" height="63.413" transform="translate(0 0)" fill="none"/>
    </clipPath>
  </defs>
  <g id="Group_33-2" data-name="Group 33" clip-path="url(#clip-path)">
    <path id="Path_1811" data-name="Path 1811" d="M55.652,9.4A31.522,31.522,0,0,0,15.485,5.447L15.92,2.7a1.644,1.644,0,1,0-3.247-.514L11.6,8.987a1.639,1.639,0,0,0,1.365,1.88l6.8,1.077a2.143,2.143,0,0,0,.263.019A1.644,1.644,0,0,0,20.271,8.7l-2.982-.47A28.5,28.5,0,0,1,55.3,49.878a1.645,1.645,0,0,0,.169,2.316,1.6,1.6,0,0,0,1.054.4,1.734,1.734,0,0,0,1.314-.624A31.58,31.58,0,0,0,55.652,9.4" fill="#65D872"/>
    <path id="Path_1812" data-name="Path 1812" d="M53.14,53.257a1.655,1.655,0,0,0-1.073-.66l-6.794-1.073a1.641,1.641,0,0,0-1.617,2.565,1.654,1.654,0,0,0,1.1.676l2.986.473A28.5,28.5,0,0,1,9.747,13.564,1.64,1.64,0,0,0,7.2,11.5,31.778,31.778,0,0,0,49.553,57.98l-.441,2.774a1.639,1.639,0,0,0,1.375,1.887,1.665,1.665,0,0,0,1.862-1.369l1.079-6.795a1.65,1.65,0,0,0-.253-1.163c-.011-.02-.022-.038-.035-.057" fill="#65D872"/>
    <path id="Path_1813" data-name="Path 1813" d="M33.691,11.247a1.632,1.632,0,0,0-2.267-.008c-.5.479-12.341,11.844-13.008,22.684a14.564,14.564,0,0,0,3.67,10.59,13.21,13.21,0,0,0,8.758,4l0,2.52a1.641,1.641,0,1,0,3.281,0l0-2.518a13.25,13.25,0,0,0,8.791-3.98,14.551,14.551,0,0,0,3.7-10.492.47.47,0,0,0,0-.075c-.63-10.818-12.427-22.241-12.928-22.721m.454,31.3c2.58-.715,6.047-3.573,6.591-6.131a1.643,1.643,0,0,0-3.216-.667c-.206.954-1.953,2.519-3.371,3.278l.014-6.5A9.433,9.433,0,0,0,36.841,30.9a9.572,9.572,0,0,0,2.452-3.29A1.642,1.642,0,1,0,36.3,26.264a6,6,0,0,1-2.131,2.551l.013-6.409a1.652,1.652,0,0,0-1.642-1.649h0a1.648,1.648,0,0,0-1.644,1.64l-.011,6.412a6.2,6.2,0,0,1-2.128-2.575,1.643,1.643,0,0,0-2.993,1.355,9.615,9.615,0,0,0,2.445,3.3,9.45,9.45,0,0,0,2.669,1.632l-.01,6.5c-1.417-.766-3.157-2.336-3.355-3.278a1.642,1.642,0,1,0-3.218.652c.531,2.55,3.986,5.421,6.566,6.144l-.006,2.68a9.973,9.973,0,0,1-6.362-2.946,11.387,11.387,0,0,1-2.8-8.149c.486-7.851,8.014-16.4,10.86-19.361,2.834,2.98,10.334,11.568,10.792,19.4a11.364,11.364,0,0,1-2.812,8.123,9.976,9.976,0,0,1-6.383,2.948Z" fill="#65D872"/>
  </g>
</svg>
