<svg xmlns="http://www.w3.org/2000/svg" xmlns:xlink="http://www.w3.org/1999/xlink" width="64" height="63.948" viewBox="0 0 64 63.948">
  <defs>
    <clipPath id="clip-path">
      <rect id="Rectangle_3" data-name="Rectangle 3" width="64" height="63.948" fill="none"/>
    </clipPath>
  </defs>
  <g id="Icon" transform="translate(0 0)">
    <g id="Group_10" data-name="Group 10" transform="translate(0 0)" clip-path="url(#clip-path)">
      <path id="Path_1732" data-name="Path 1732" d="M54.66,52.107V41.268h1.351a5.325,5.325,0,0,0,5.317-5.319V30.614A5.325,5.325,0,0,0,56.011,25.3h-2.35a22.693,22.693,0,0,0-21-15.976l0-1.517a3.937,3.937,0,1,0-1.332,0l0,1.517a22.69,22.69,0,0,0-21,15.973H7.987a5.325,5.325,0,0,0-5.319,5.319v5.337a5.325,5.325,0,0,0,5.319,5.319H9.337V52.107A10.635,10.635,0,0,0,0,62.631a1.318,1.318,0,0,0,1.317,1.317H62.681A1.327,1.327,0,0,0,64,62.631a10.635,10.635,0,0,0-9.34-10.524m7.654,8.013a9.363,9.363,0,0,0-7.682-6.688l.005-.026a9.324,9.324,0,0,1,7.677,6.714M54.283,27.929h1.728a2.686,2.686,0,0,1,2.68,2.683v5.337a2.684,2.684,0,0,1-2.68,2.683H54.66V31.947a22.71,22.71,0,0,0-.377-4.018M56.011,26.6a4.022,4.022,0,0,1,4.015,4.018v5.335a4.02,4.02,0,0,1-4.015,4.018l-1.351-.016v-.018h1.351a3.985,3.985,0,0,0,3.982-3.984V30.612a3.987,3.987,0,0,0-3.982-3.984L54,26.6V26.6Zm-3.055,1.254a21.455,21.455,0,0,1,.4,4.1v6.685h-.016l-.013,0-.005-6.688a21.349,21.349,0,0,0-.4-4.1l.034.008m.388,24.121h0l-.008-10.706.01,0h.016V51.974l-.016,0m.016,1.3v.01a.018.018,0,0,1-.018.021v-.034h0l.016,0m-.016-13.342h.016v0Zm-.926-14.256-.026.034a21.353,21.353,0,0,0-19.747-15.06c0-.01.013-.018.013-.031a21.385,21.385,0,0,1,19.76,15.057M45.336,51.972l-.01-6.667H18.672l-.023,6.667h0l.013-6.7,26.7.016v6.685Zm.018,1.3v.018a.015.015,0,0,1-.016.016v-.034Zm-1.33,0v.018l0,.016H19.971l0-.016v-.018ZM19.973,46.606H44.022v5.369H19.973ZM45.338,43.97H18.659a1.318,1.318,0,0,0-1.317,1.317v6.685H11.973V31.947a20.025,20.025,0,1,1,40.05,0V51.972H46.655V45.286a1.318,1.318,0,0,0-1.317-1.317M17.345,53.307H11.971l0-.016v-.018h5.369v.018l0,.016M30.7,3.932a1.3,1.3,0,1,1,1.3,1.3,1.3,1.3,0,0,1-1.3-1.3M46.655,53.291v-.018h5.369v.018l0,.016H46.653l0-.016M29.365,3.932a2.634,2.634,0,0,1,5.267,0,2.6,2.6,0,0,1-2.012,2.511l-.013-.031A2.567,2.567,0,0,0,34.6,3.932a2.6,2.6,0,0,0-5.2,0,2.565,2.565,0,0,0,2,2.48l-.013.031a2.6,2.6,0,0,1-2.014-2.511m1.973,6.688.016.031A21.356,21.356,0,0,0,11.607,25.714l-.026-.036A21.387,21.387,0,0,1,31.338,10.62m-20.7,21.326a21.455,21.455,0,0,1,.4-4.1l.036-.008a21.349,21.349,0,0,0-.406,4.1l-.01,6.688-.008,0h-.016Zm0,8h.021v.01l-.005.005h-.016Zm0,1.317h.018l-.016,10.706h0Zm.016,13.34H53.341a8.056,8.056,0,0,1,7.911,6.7H2.743a8.056,8.056,0,0,1,7.911-6.7M7.987,39.967a4.022,4.022,0,0,1-4.018-4.018V30.612a4.024,4.024,0,0,1,4.018-4.018L10,26.62l0,.008H7.987A3.989,3.989,0,0,0,4,30.612v5.337a3.988,3.988,0,0,0,3.984,3.984l1.351.01v.023ZM9.715,27.929a22.71,22.71,0,0,0-.377,4.018v6.685H7.987A2.686,2.686,0,0,1,5.3,35.949V30.612a2.688,2.688,0,0,1,2.683-2.683ZM9.361,53.406l.005.026a9.373,9.373,0,0,0-7.073,5.09,9.327,9.327,0,0,1,7.068-5.116m53.32,9.241L1.3,62.631c0-.065.018-.125.018-.19l-.01.172H62.686l-.026-.38c.005.133.039.258.039.393a.02.02,0,0,1-.018.021" transform="translate(0 -0.001)" fill="#0095b5"/>
      <path id="Path_1733" data-name="Path 1733" d="M12.292,9.72a6.653,6.653,0,1,0,6.654,6.652A6.659,6.659,0,0,0,12.292,9.72m0,12a5.352,5.352,0,1,1,5.353-5.353,5.36,5.36,0,0,1-5.353,5.353" transform="translate(9.034 15.574)" fill="#0095b5"/>
      <path id="Path_1734" data-name="Path 1734" d="M11.47,10.232a5.319,5.319,0,1,0,5.319,5.319,5.325,5.325,0,0,0-5.319-5.319m0,9.337a4.018,4.018,0,1,1,4.018-4.018,4.02,4.02,0,0,1-4.018,4.018" transform="translate(9.856 16.395)" fill="#0095b5"/>
      <path id="Path_1735" data-name="Path 1735" d="M19.672,10.232a5.319,5.319,0,1,0,5.319,5.319,5.325,5.325,0,0,0-5.319-5.319m0,9.337a4.018,4.018,0,1,1,4.018-4.018,4.02,4.02,0,0,1-4.018,4.018" transform="translate(22.999 16.395)" fill="#0095b5"/>
      <path id="Path_1736" data-name="Path 1736" d="M27.149,16.372a6.654,6.654,0,1,0-6.654,6.654,6.659,6.659,0,0,0,6.654-6.654m-6.654,5.353a5.352,5.352,0,1,1,5.353-5.353,5.36,5.36,0,0,1-5.353,5.353" transform="translate(22.177 15.574)" fill="#0095b5"/>
    </g>
  </g>
</svg>
