<svg id="Logo" xmlns="http://www.w3.org/2000/svg" width="80" height="73.581" viewBox="0 0 80 73.581">
  <g id="Reedy">
    <g id="g22" transform="translate(1.285 50.791)">
      <path id="path24" d="M-66.377-56.934a5.305,5.305,0,0,1-3.463.979h-4.081v-7.491h4.081a5.35,5.35,0,0,1,3.463.968,3.371,3.371,0,0,1,1.182,2.766,3.411,3.411,0,0,1-1.182,2.779m.7,3.155a6.154,6.154,0,0,0,2.969-2.283,6.376,6.376,0,0,0,1.032-3.651,6.461,6.461,0,0,0-.966-3.572,6.181,6.181,0,0,0-2.779-2.309,10.392,10.392,0,0,0-4.256-.806h-7.734v17.708A1.781,1.781,0,0,0-75.792-46.9a1.744,1.744,0,0,0,1.359-.507,1.75,1.75,0,0,0,.511-1.236v-4.441h4.243c.321,0,.563-.01.724-.027l4.391,5.554,0,.006.038.053h0a1.533,1.533,0,0,0,1.234.62,1.538,1.538,0,0,0,1.234-.62,1.529,1.529,0,0,0,.3-.918,1.528,1.528,0,0,0-.263-.86Z" transform="translate(77.413 66.4)" fill="#65D872"/>
    </g>
    <g id="g26" transform="translate(18.005 55.724)">
      <path id="path28" d="M-20.027-37.146a4.011,4.011,0,0,1,1.356-2.538,4.052,4.052,0,0,1,2.726-.953,4,4,0,0,1,2.739.967,3.958,3.958,0,0,1,1.316,2.524ZM-12.2-42.4a7.522,7.522,0,0,0-3.746-.926,7.718,7.718,0,0,0-3.813.94A6.759,6.759,0,0,0-22.4-39.765a7.5,7.5,0,0,0-.953,3.773,7.387,7.387,0,0,0,.98,3.8A6.765,6.765,0,0,0-19.6-29.574a8.856,8.856,0,0,0,4.162.94,8.9,8.9,0,0,0,3.33-.591,6.058,6.058,0,0,0,2.443-1.746l-1.8-2.067a5.227,5.227,0,0,1-3.894,1.558,5.061,5.061,0,0,1-3.1-.926A3.9,3.9,0,0,1-20-34.918H-8.75q.054-.644.054-.994a7.9,7.9,0,0,0-.926-3.88A6.565,6.565,0,0,0-12.2-42.4" transform="translate(23.357 43.323)" fill="#65D872"/>
    </g>
    <g id="g30" transform="translate(34.035 55.724)">
      <path id="path32" d="M-20.026-37.146a4.01,4.01,0,0,1,1.356-2.538,4.051,4.051,0,0,1,2.726-.953,4,4,0,0,1,2.739.967,3.958,3.958,0,0,1,1.316,2.524ZM-12.2-42.4a7.521,7.521,0,0,0-3.746-.926,7.718,7.718,0,0,0-3.813.94A6.761,6.761,0,0,0-22.4-39.765a7.5,7.5,0,0,0-.953,3.773,7.387,7.387,0,0,0,.98,3.8A6.765,6.765,0,0,0-19.6-29.574a8.856,8.856,0,0,0,4.162.94,8.9,8.9,0,0,0,3.33-.591,6.06,6.06,0,0,0,2.444-1.746l-1.8-2.067a5.227,5.227,0,0,1-3.894,1.558,5.061,5.061,0,0,1-3.1-.926A3.9,3.9,0,0,1-20-34.918H-8.748q.053-.644.054-.994a7.9,7.9,0,0,0-.926-3.88A6.563,6.563,0,0,0-12.2-42.4" transform="translate(23.356 43.323)" fill="#65D872"/>
    </g>
    <g id="g34" transform="translate(66.712 56.528)">
      <path id="path36" d="M-60.486-2.049-63.7,5.532l-3.352-7.922h-3.491l5.1,11.7-.243.563a3.984,3.984,0,0,1-1.057,1.53,2.279,2.279,0,0,1-1.46.459h-.487a1.4,1.4,0,0,0-1.4,1.4,1.4,1.4,0,0,0,1.4,1.4h.487a5.539,5.539,0,0,0,3.276-.96,7.237,7.237,0,0,0,2.281-3.283l5.383-12.47Z" transform="translate(70.543 2.389)" fill="#65D872"/>
    </g>
    <g id="g38" transform="translate(50.118 50.31)">
      <path id="path40" d="M-68.308-90.937a3.965,3.965,0,0,1-1.53,1.572,4.31,4.31,0,0,1-2.177.549,4.31,4.31,0,0,1-2.177-.549,4.012,4.012,0,0,1-1.53-1.572,4.815,4.815,0,0,1-.563-2.364,4.835,4.835,0,0,1,.563-2.365,3.99,3.99,0,0,1,1.53-1.565,4.308,4.308,0,0,1,2.177-.549,4.308,4.308,0,0,1,2.177.549,3.943,3.943,0,0,1,1.53,1.565,4.833,4.833,0,0,1,.563,2.365,4.813,4.813,0,0,1-.563,2.364m4.055,3.8a2.63,2.63,0,0,1-.188-.967v-17.95H-67.8V-98.7a5.214,5.214,0,0,0-2.01-1.447,6.75,6.75,0,0,0-2.608-.487,7.5,7.5,0,0,0-3.714.918,6.549,6.549,0,0,0-2.594,2.573,7.7,7.7,0,0,0-.939,3.839,7.751,7.751,0,0,0,.939,3.853,6.559,6.559,0,0,0,2.594,2.594,7.575,7.575,0,0,0,3.714.911,6.91,6.91,0,0,0,2.7-.508,5.214,5.214,0,0,0,2.059-1.53,5.629,5.629,0,0,0,.348,1.969,2.752,2.752,0,0,0,.257.465v.007a1.638,1.638,0,0,0,1.342.7A1.615,1.615,0,0,0-64.1-86.451a1.658,1.658,0,0,0-.111-.591c-.014-.035-.028-.063-.042-.1" transform="translate(79.665 106.057)" fill="#65D872"/>
    </g>
  </g>
  <g id="Isologo">
    <path id="path20" d="M-306.1-130.068a7.3,7.3,0,0,1-4.431-2.8A6.87,6.87,0,0,1-312-137.385a4.575,4.575,0,0,1,1.911-3.659,5.344,5.344,0,0,1,4.187-.976,6.78,6.78,0,0,1,3.9,2.277,8.07,8.07,0,0,1,1.992,4.472,14.875,14.875,0,0,1-.164,5.111c-.4.081-.787.154-1.136.214a11.31,11.31,0,0,1-4.8-.122m-42.032-3.577a13.426,13.426,0,0,1,.935-5.894,9.041,9.041,0,0,1,3.333-4.146,9.032,9.032,0,0,1,5.162-1.5,9.269,9.269,0,0,1,5.081,1.423,9.048,9.048,0,0,1,3.415,4.065,13.169,13.169,0,0,1,1.016,6.057,16.656,16.656,0,0,1-3.7,9.594,22.065,22.065,0,0,1-5.751,5.021,25.774,25.774,0,0,1-5.184-4.411,16.235,16.235,0,0,1-4.309-10.2m70.284.854a3.073,3.073,0,0,0-2.154-1.016,28.121,28.121,0,0,0-6.545.447c-2,.37-4.3.9-6.861,1.558a19.122,19.122,0,0,0-.09-4.444,13.7,13.7,0,0,0-4.065-7.805,14.721,14.721,0,0,0-7.967-4.227,10.519,10.519,0,0,0-8.293,1.87,10.074,10.074,0,0,0-4.227,7.724,14.458,14.458,0,0,0,2.479,9.349,12.8,12.8,0,0,0,8.008,5.61,18.366,18.366,0,0,0,4.578.487,20.136,20.136,0,0,1-5.879,5.61q-5.286,3.415-13.577,3.415a29.532,29.532,0,0,1-9.762-1.712,29.651,29.651,0,0,0,4.722-4.752,22,22,0,0,0,4.8-12.642,18.461,18.461,0,0,0-1.829-9.187,16.582,16.582,0,0,0-5.854-6.707,14.883,14.883,0,0,0-8.333-2.48,14.453,14.453,0,0,0-8.455,2.6,16.978,16.978,0,0,0-5.732,6.829,18.443,18.443,0,0,0-1.748,8.943,22.245,22.245,0,0,0,5.569,13.5,33.56,33.56,0,0,0,3.846,3.766,37.549,37.549,0,0,1-8.765,1.681,3.074,3.074,0,0,0-2.154,1.016,3.205,3.205,0,0,0-.854,2.236,3.094,3.094,0,0,0,1.057,2.357,3.2,3.2,0,0,0,2.439.894,42.053,42.053,0,0,0,14.715-3.943l.017-.009c.685.346,1.38.678,2.1.985a36.078,36.078,0,0,0,14.227,3.13q10.324,0,17.155-4.675a26.44,26.44,0,0,0,9.716-11.382c.1-.222.174-.439.263-.66q1.843-.432,3.924-1.007,4.39-1.056,6.626-1.5a19.069,19.069,0,0,1,4.431-.366,2.947,2.947,0,0,0,2.357-.894,3.209,3.209,0,0,0,.976-2.358,3.2,3.2,0,0,0-.854-2.236" transform="translate(356.999 151.694)" fill="#65D872"/>
  </g>
</svg>
