<svg id="fb" xmlns="http://www.w3.org/2000/svg" width="32" height="32" viewBox="0 0 32 32">
  <path id="Path_434" data-name="Path 434" d="M16,32A16,16,0,1,0,0,16,16,16,0,0,0,16,32Z" fill="#26d07c"/>
  <path id="Path_435" data-name="Path 435" d="M232.82,163.789l.434-2.828h-2.713v-1.835a1.414,1.414,0,0,1,1.594-1.528h1.234v-2.407a15.039,15.039,0,0,0-2.19-.191,3.452,3.452,0,0,0-3.7,3.806v2.155H225v2.828h2.484v6.836a9.89,9.89,0,0,0,3.057,0v-6.836h2.279Z" transform="translate(-213.192 -146.865)" fill="#16181d"/>
</svg>
