<svg id="linkedin" xmlns="http://www.w3.org/2000/svg" width="32" height="32" viewBox="0 0 32 32">
  <path id="Path_1819" data-name="Path 1819" d="M16,32A16,16,0,1,0,0,16,16,16,0,0,0,16,32Z" fill="#00d573"/>
  <path id="Path_1820" data-name="Path 1820" d="M162.262,134.045h3.293v10.473h-3.293Zm1.647-5.2A1.888,1.888,0,1,1,162,130.726,1.9,1.9,0,0,1,163.909,128.84Z" transform="translate(-153.534 -122.107)" fill="#16181d"/>
  <path id="Path_1821" data-name="Path 1821" d="M268,224.1h3.134v1.43h.043a3.439,3.439,0,0,1,3.095-1.689c3.308,0,3.919,2.164,3.919,4.98v5.734h-3.266v-5.083c0-1.213-.024-2.772-1.7-2.772s-1.96,1.321-1.96,2.684v5.171H268V224.1Z" transform="translate(-253.994 -212.142)" fill="#16181d"/>
</svg>
