<svg id="tiktok" xmlns="http://www.w3.org/2000/svg" width="32" height="32" viewBox="0 0 32 32">
  <path id="Path_1814" data-name="Path 1814" d="M16,32A16,16,0,1,0,0,16,16,16,0,0,0,16,32Z" fill="#00d573"/>
  <path id="Path_1815" data-name="Path 1815" d="M191.436,162.343c-.128.013-.257.019-.386.02a4.194,4.194,0,0,1-3.508-1.893v6.445a4.771,4.771,0,1,1-4.771-4.763c.1,0,.2.009.295.015v2.348a2.426,2.426,0,1,0-.295,4.833,2.493,2.493,0,0,0,2.533-2.4L185.328,156h2.249a4.187,4.187,0,0,0,3.861,3.734v2.609" transform="translate(-168.698 -147.847)" fill="#16181d"/>
</svg>
