<svg id="youtube" xmlns="http://www.w3.org/2000/svg" xmlns:xlink="http://www.w3.org/1999/xlink" width="32" height="32" viewBox="0 0 32 32">
  <defs>
    <clipPath id="clip-path">
      <rect id="Rectangle_12" data-name="Rectangle 12" width="15.678" height="11.027" fill="#fff"/>
    </clipPath>
  </defs>
  <path id="Path_1816" data-name="Path 1816" d="M16,32A16,16,0,1,0,0,16,16,16,0,0,0,16,32Z" fill="#00d573"/>
  <g id="Group_34" data-name="Group 34" transform="translate(8.153 10.504)" clip-path="url(#clip-path)">
    <path id="Path_1817" data-name="Path 1817" d="M171.5,202.841a1.966,1.966,0,0,0-1.385-1.391,57.147,57.147,0,0,0-12.244,0,1.966,1.966,0,0,0-1.385,1.391,22.067,22.067,0,0,0,0,7.574,1.966,1.966,0,0,0,1.385,1.391,57.155,57.155,0,0,0,12.244,0,1.967,1.967,0,0,0,1.385-1.391,22.059,22.059,0,0,0,0-7.574Z" transform="translate(-156.146 -201.115)" fill="#16181d" fill-rule="evenodd"/>
    <path id="Path_1818" data-name="Path 1818" d="M276.092,266.055l4.071-2.36-4.071-2.36Z" transform="translate(-269.816 -258.181)" fill="#fff" fill-rule="evenodd"/>
  </g>
</svg>
