<svg viewBox="0 0 200 70" xmlns="http://www.w3.org/2000/svg">
  <path
    fill="#66d871"
    d="m186.88,18.89c-.79.68-1.61,1.32-2.44,1.95-.23-.93-.66-1.84-1.35-2.72-1.87-2.39-5.48-3.66-8.44-2.57-.37-.99-.92-1.89-1.63-2.61-3.09-3.13-7.5-2.51-10.65,0-1.7,1.36-3.3,2.89-4.85,4.51-1.51-.91-3.43-1.21-5.65-.48-1.35.45-2.64,1-3.88,1.61-2.11-2.39-5.41-3.4-8.71-.93-.81.61-1.64,1.19-2.45,1.79,2.89-6.11-4.87-12.72-10.83-9.24-4.47,2.61-8.37,6.04-12.38,9.31-1.95-.28-4.06.26-5.98,2-2.28-2.02-5.73-2.84-8.83-1.12-.42.24-.85.47-1.27.71-2.17-.93-4.76-.97-6.73.38-.06.04-.12.09-.19.13-.85-2.19-2.63-3.95-5.08-4.37-1.97-3.57-6.45-5.96-10.39-3.18-.4.28-.79.56-1.19.84-.2-.13-.41-.24-.62-.35-1.16-4.03-6.85-6.67-11.25-4.74,1.77-5.55-5.2-12.54-11.19-8.73-5.49,3.5-10.68,7.4-15.51,11.67-9.96,6.85-20.5,12.82-31.51,17.92-8.35,3.87-1.82,15.69,6.36,13.31-.24.43-.49.86-.72,1.29-3.21,5.96,3.86,15,10.3,10.19,3.88-2.9,7.7-5.88,11.47-8.91-.77,1.63-1.64,3.21-2.68,4.7-4.89,7.01,4.7,13.52,10.91,9.67,2.6,3.16,8.14,4.53,11.81,1.37.1-.08.19-.17.28-.26.15.71.42,1.42.83,2.12,1.54,2.6,5.47,4.65,8.5,3.42,5.88-2.39,11.01-6.05,15.8-10.25-1.46,6.33,6.36,12.26,12.54,6.97,1.7-1.46,3.34-2.99,4.93-4.58-2.17,5.88,4.3,13.1,10.76,9.13,4.55-2.8,8.28-6.6,11.92-10.47.55.87,1.09,1.74,1.64,2.61,2.26,3.6,6.56,4.48,10.3,2.67,4.4-2.12,8.8-4.25,13.19-6.37.51.61,1.01,1.22,1.5,1.84.94,1.2,1.84,2.43,2.73,3.66,2.98,4.11,10.35,5.51,13,0,2.43-5.05,5.1-10.01,7.91-14.86.21-.36.42-.73.64-1.11,2.18.63,4.74.21,7.14-1.84,6.99-5.98,15.51-9.55,22.55-15.57,7.34-6.28-3.35-16.77-10.65-10.53Z"
  />
</svg>
